<svg width="232" height="37" viewBox="0 0 232 37" fill="none" xmlns="http://www.w3.org/2000/svg">
<path fill-rule="evenodd" clip-rule="evenodd" d="M215.918 6.57895C215.918 10.2124 218.863 13.1579 222.497 13.1579C226.13 13.1579 229.076 10.2124 229.076 6.57895C229.076 2.94549 226.13 0 222.497 0C218.863 0 215.918 2.94549 215.918 6.57895ZM218.842 6.57894C218.842 8.59752 220.478 10.2339 222.497 10.2339C224.516 10.2339 226.152 8.59752 226.152 6.57894C226.152 4.56035 224.516 2.92397 222.497 2.92397C220.478 2.92397 218.842 4.56035 218.842 6.57894ZM186.386 26.6081V13.7427H182V10.8187H186.386V6.14037H189.31V10.8187H198.959L198.959 13.7427L198.959 21.0526V26.3776H198.962C198.96 26.4248 198.959 26.4723 198.959 26.52V26.5237V26.5275C198.961 28.5444 200.597 30.1787 202.614 30.1787C204.632 30.1787 206.269 28.5423 206.269 26.5237C206.269 26.4748 206.268 26.426 206.266 26.3776H209.191C209.192 26.4262 209.193 26.4749 209.193 26.5237C209.193 30.1572 206.247 33.1027 202.614 33.1027C199.009 33.1027 196.081 30.2027 196.036 26.6082H196.035V13.7427H189.31V26.6082H189.308C189.309 26.6568 189.31 26.7055 189.31 26.7543C189.31 30.3877 186.364 33.3332 182.731 33.3332C182.583 33.3332 182.437 33.3284 182.292 33.3188V30.3831C182.436 30.4003 182.582 30.4092 182.731 30.4092C184.749 30.4092 186.386 28.7728 186.386 26.7542C186.386 26.7053 186.385 26.6566 186.383 26.6081H186.386ZM212.994 13.7427H215.92V13.74H218.84V13.7427H232V16.6667H218.84V20.1755H223.228V20.1787C223.297 20.1765 223.366 20.1755 223.436 20.1755C227.069 20.1755 230.015 23.121 230.015 26.7544C230.015 30.3879 227.069 33.3334 223.436 33.3334C223.387 33.3334 223.338 33.3328 223.29 33.3318V30.4064C223.338 30.4083 223.387 30.4093 223.436 30.4093C225.454 30.4093 227.091 28.7729 227.091 26.7543C227.091 24.7357 225.454 23.0994 223.436 23.0994C223.415 23.0994 223.393 23.0995 223.372 23.0999C223.345 23.1004 223.317 23.1011 223.29 23.1022V23.0994L223.228 23.0995H218.84V23.1H215.92V23.0995H215.918V20.1755H215.92V16.6667H212.994V13.7427ZM0.0900844 30H7.30884C9.37702 30 11.1535 29.5923 12.6384 28.777C14.1299 27.9616 15.2733 26.7917 16.0688 25.267C16.8709 23.7424 17.2719 21.9195 17.2719 19.7983C17.2719 17.6837 16.8709 15.8674 16.0688 14.3494C15.2733 12.8314 14.1365 11.6681 12.6583 10.8594C11.18 10.044 9.41679 9.63636 7.36849 9.63636H0.0900844V30ZM7.12986 26.3111H4.39548V13.3253H7.1398C8.41253 13.3253 9.48308 13.5507 10.3514 14.0014C11.2198 14.4522 11.8728 15.1548 12.3103 16.1094C12.7544 17.0639 12.9764 18.2936 12.9764 19.7983C12.9764 21.3163 12.7544 22.5559 12.3103 23.517C11.8728 24.4716 11.2165 25.1776 10.3415 25.6349C9.47313 26.0857 8.40258 26.3111 7.12986 26.3111ZM20.3816 14.7273V30H24.6174V14.7273H20.3816ZM20.8887 12.1321C21.3395 12.5497 21.8797 12.7585 22.5095 12.7585C23.1392 12.7585 23.6761 12.5497 24.1203 12.1321C24.571 11.7079 24.7964 11.2008 24.7964 10.6108C24.7964 10.0275 24.571 9.52699 24.1203 9.10938C23.6761 8.68513 23.1392 8.47301 22.5095 8.47301C21.8797 8.47301 21.3395 8.68513 20.8887 9.10938C20.4446 9.52699 20.2225 10.0275 20.2225 10.6108C20.2225 11.2008 20.4446 11.7079 20.8887 12.1321ZM36.8401 19.321L40.7179 19.0824C40.5323 17.6771 39.8827 16.5668 38.7691 15.7514C37.6621 14.9361 36.1441 14.5284 34.2151 14.5284C32.9092 14.5284 31.7691 14.7206 30.7946 15.1051C29.8268 15.4896 29.0745 16.0365 28.5375 16.7457C28.0072 17.455 27.7421 18.3002 27.7421 19.2812C27.7421 20.4214 28.1033 21.3594 28.8259 22.0952C29.555 22.831 30.6654 23.348 32.1568 23.6463L34.8017 24.1733C35.4646 24.3059 35.9551 24.4981 36.2733 24.75C36.5915 24.9953 36.7539 25.3101 36.7605 25.6946C36.7539 26.152 36.5219 26.5265 36.0645 26.8182C35.6138 27.1032 35.0172 27.2457 34.2747 27.2457C33.5191 27.2457 32.8993 27.0866 32.4154 26.7685C31.9315 26.4437 31.6265 25.973 31.5006 25.3565L27.3344 25.5753C27.5399 27.0336 28.2392 28.187 29.4324 29.0355C30.6322 29.8774 32.243 30.2983 34.2648 30.2983C35.5906 30.2983 36.7605 30.0895 37.7747 29.6719C38.7956 29.2476 39.5977 28.6577 40.181 27.902C40.771 27.1463 41.0659 26.268 41.0659 25.267C41.0659 24.1667 40.7014 23.2784 39.9722 22.6023C39.243 21.9261 38.136 21.4356 36.6512 21.1307L33.887 20.5739C33.1777 20.4214 32.6772 20.2192 32.3855 19.9673C32.0939 19.7154 31.948 19.4072 31.948 19.0426C31.948 18.5852 32.1734 18.2206 32.6242 17.9489C33.0749 17.6705 33.6284 17.5312 34.2847 17.5312C34.7752 17.5312 35.1961 17.6141 35.5475 17.7798C35.9054 17.9389 36.1938 18.1544 36.4125 18.4261C36.6313 18.6913 36.7738 18.9896 36.8401 19.321ZM46.5968 29.304C47.7237 29.9669 49.0694 30.2983 50.6338 30.2983C51.9927 30.2983 53.1693 30.0497 54.1636 29.5526C55.1579 29.0554 55.9368 28.366 56.5002 27.4844C57.0703 26.5961 57.3885 25.5687 57.4548 24.402H53.4576C53.3781 24.9389 53.209 25.3996 52.9505 25.7841C52.6986 26.1619 52.3771 26.4503 51.986 26.6491C51.6016 26.848 51.1674 26.9474 50.6835 26.9474C50.0272 26.9474 49.4538 26.7685 48.9633 26.4105C48.4728 26.0526 48.0916 25.5322 47.8198 24.8494C47.5547 24.1667 47.4221 23.3381 47.4221 22.3636C47.4221 21.4025 47.558 20.5838 47.8298 19.9077C48.1016 19.2315 48.4794 18.7178 48.9633 18.3665C49.4538 18.0085 50.0272 17.8295 50.6835 17.8295C51.459 17.8295 52.0855 18.0649 52.5627 18.5355C53.0466 18.9995 53.3449 19.6127 53.4576 20.375H57.4548C57.3951 19.1951 57.0736 18.1676 56.4903 17.2926C55.907 16.4176 55.1148 15.7382 54.1139 15.2543C53.1129 14.7704 51.9463 14.5284 50.6139 14.5284C49.0694 14.5284 47.737 14.8632 46.6167 15.5327C45.4965 16.1955 44.6314 17.1203 44.0215 18.3068C43.4183 19.4867 43.1167 20.8589 43.1167 22.4233C43.1167 23.9678 43.415 25.3333 44.0116 26.5199C44.6148 27.7064 45.4766 28.6345 46.5968 29.304ZM63.0603 29.3139C64.1871 29.9702 65.5229 30.2983 67.0674 30.2983C68.6119 30.2983 69.9443 29.9702 71.0645 29.3139C72.1914 28.651 73.0598 27.7296 73.6696 26.5497C74.2795 25.3632 74.5844 23.9877 74.5844 22.4233C74.5844 20.8456 74.2795 19.4669 73.6696 18.2869C73.0598 17.1004 72.1914 16.179 71.0645 15.5227C69.9443 14.8598 68.6119 14.5284 67.0674 14.5284C65.5229 14.5284 64.1871 14.8598 63.0603 15.5227C61.94 16.179 61.0749 17.1004 60.4651 18.2869C59.8552 19.4669 59.5503 20.8456 59.5503 22.4233C59.5503 23.9877 59.8552 25.3632 60.4651 26.5497C61.0749 27.7296 61.94 28.651 63.0603 29.3139ZM68.8472 26.4205C68.3765 26.8182 67.7899 27.017 67.0872 27.017C66.378 27.017 65.7814 26.8182 65.2975 26.4205C64.8202 26.0161 64.4589 25.4659 64.2137 24.7699C63.975 24.0739 63.8557 23.2817 63.8557 22.3935C63.8557 21.5052 63.975 20.7131 64.2137 20.017C64.4589 19.321 64.8202 18.7708 65.2975 18.3665C65.7814 17.9621 66.378 17.7599 67.0872 17.7599C67.7899 17.7599 68.3765 17.9621 68.8472 18.3665C69.3178 18.7708 69.6725 19.321 69.9111 20.017C70.1564 20.7131 70.279 21.5052 70.279 22.3935C70.279 23.2817 70.1564 24.0739 69.9111 24.7699C69.6725 25.4659 69.3178 26.0161 68.8472 26.4205ZM80.6895 35.4787C81.6706 35.8565 82.8472 36.0455 84.2193 36.0455C85.6777 36.0455 86.967 35.8234 88.0872 35.3793C89.2141 34.9418 90.0958 34.2855 90.7321 33.4105C91.3685 32.5355 91.6867 31.4484 91.6867 30.1491V14.7273H87.4807V17.2926H87.3216C87.1294 16.8816 86.8543 16.464 86.4963 16.0398C86.145 15.6089 85.681 15.2509 85.1043 14.9659C84.5276 14.6742 83.8117 14.5284 82.9566 14.5284C81.8363 14.5284 80.8055 14.8168 79.8642 15.3935C78.9296 15.9702 78.1805 16.8385 77.6171 17.9986C77.0536 19.1586 76.7719 20.6037 76.7719 22.3338C76.7719 24.0241 77.047 25.4228 77.5972 26.5298C78.154 27.6302 78.8997 28.4489 79.8344 28.9858C80.7757 29.5161 81.8197 29.7812 82.9665 29.7812C83.7752 29.7812 84.4712 29.6619 85.0546 29.4233C85.6379 29.1847 86.1152 28.8764 86.4864 28.4986C86.8576 28.1207 87.136 27.7197 87.3216 27.2955H87.5006V30.0895C87.5006 31.1368 87.199 31.8826 86.5958 32.3267C85.9992 32.7775 85.2402 33.0028 84.3188 33.0028C83.7023 33.0028 83.1786 32.92 82.7478 32.7543C82.3235 32.5952 81.9821 32.383 81.7236 32.1179C81.4651 31.8527 81.2762 31.5677 81.1568 31.2628L77.2392 31.7898C77.4116 32.5919 77.7861 33.3144 78.3628 33.9574C78.9395 34.6004 79.7151 35.1075 80.6895 35.4787ZM86.0389 26.0923C85.5683 26.4304 84.9916 26.5994 84.3088 26.5994C83.6128 26.5994 83.0262 26.4271 82.5489 26.0824C82.0782 25.7311 81.717 25.2372 81.4651 24.6009C81.2198 23.9579 81.0972 23.1955 81.0972 22.3139C81.0972 21.4455 81.2198 20.6799 81.4651 20.017C81.7104 19.3542 82.0716 18.8371 82.5489 18.4659C83.0262 18.0881 83.6128 17.8991 84.3088 17.8991C84.9916 17.8991 85.5716 18.0814 86.0489 18.446C86.5262 18.8106 86.8907 19.3243 87.1426 19.9872C87.3945 20.6435 87.5205 21.419 87.5205 22.3139C87.5205 23.2088 87.3912 23.9777 87.1327 24.6207C86.8808 25.2571 86.5162 25.7476 86.0389 26.0923ZM99.1639 14.7273H95.0574V30H99.2932V21.3594C99.2932 20.7363 99.4324 20.1861 99.7108 19.7088C99.9959 19.2315 100.38 18.8603 100.864 18.5952C101.355 18.3234 101.912 18.1875 102.535 18.1875C102.826 18.1875 103.148 18.2107 103.499 18.2571C103.851 18.3035 104.126 18.3565 104.324 18.4162V14.6577C104.139 14.6113 103.923 14.5748 103.678 14.5483C103.433 14.5218 103.204 14.5085 102.992 14.5085C102.137 14.5085 101.381 14.7538 100.725 15.2443C100.069 15.7282 99.6014 16.4441 99.323 17.392H99.1639V14.7273ZM107.827 29.7812C108.589 30.1193 109.458 30.2884 110.432 30.2884C111.188 30.2884 111.854 30.1889 112.431 29.9901C113.007 29.7846 113.501 29.5028 113.912 29.1449C114.323 28.7803 114.651 28.3594 114.897 27.8821H115.016V30H119.033V19.6989C119.033 18.7907 118.857 18.0118 118.506 17.3622C118.155 16.706 117.674 16.169 117.064 15.7514C116.461 15.3338 115.768 15.0256 114.986 14.8267C114.21 14.6278 113.398 14.5284 112.55 14.5284C111.33 14.5284 110.256 14.714 109.328 15.0852C108.407 15.4498 107.655 15.9735 107.071 16.6562C106.488 17.3324 106.097 18.1345 105.898 19.0625L109.816 19.3807C109.961 18.8769 110.26 18.4593 110.71 18.1278C111.161 17.7898 111.768 17.6207 112.53 17.6207C113.253 17.6207 113.809 17.7931 114.201 18.1378C114.598 18.4825 114.797 18.9697 114.797 19.5994V19.6591C114.797 19.9839 114.674 20.2292 114.429 20.3949C114.184 20.5606 113.79 20.6866 113.246 20.7727C112.702 20.8523 111.987 20.9384 111.098 21.0312C110.343 21.1042 109.62 21.2301 108.931 21.4091C108.248 21.5881 107.638 21.8532 107.101 22.2045C106.564 22.5559 106.14 23.0199 105.828 23.5966C105.517 24.1733 105.361 24.8859 105.361 25.7344C105.361 26.742 105.58 27.5838 106.017 28.2599C106.461 28.9295 107.065 29.4366 107.827 29.7812ZM113.296 26.9972C112.818 27.2424 112.268 27.3651 111.645 27.3651C110.996 27.3651 110.459 27.2159 110.034 26.9176C109.617 26.6127 109.408 26.1719 109.408 25.5952C109.408 25.1974 109.511 24.866 109.716 24.6009C109.922 24.3291 110.21 24.1136 110.581 23.9545C110.952 23.7955 111.387 23.6795 111.884 23.6065C112.116 23.5734 112.374 23.5369 112.659 23.4972C112.944 23.4508 113.229 23.401 113.514 23.348C113.799 23.2884 114.055 23.2254 114.28 23.1591C114.512 23.0862 114.694 23.0066 114.827 22.9205V24.5412C114.827 25.0781 114.691 25.5587 114.419 25.983C114.147 26.4072 113.773 26.7453 113.296 26.9972ZM122.319 14.7273V35.7273H126.555V27.554H126.684C126.876 27.9782 127.155 28.3991 127.519 28.8168C127.884 29.2277 128.351 29.5691 128.921 29.8409C129.498 30.1127 130.197 30.2486 131.019 30.2486C132.179 30.2486 133.227 29.9503 134.161 29.3537C135.103 28.7505 135.845 27.8655 136.389 26.6989C136.939 25.5256 137.214 24.0871 137.214 22.3835C137.214 20.6335 136.932 19.1785 136.369 18.0185C135.805 16.8518 135.053 15.9801 134.112 15.4034C133.17 14.8201 132.143 14.5284 131.029 14.5284C130.174 14.5284 129.458 14.6742 128.882 14.9659C128.312 15.2509 127.848 15.6089 127.49 16.0398C127.138 16.464 126.87 16.8816 126.684 17.2926H126.495V14.7273H122.319ZM126.843 24.7401C126.591 24.0639 126.465 23.2718 126.465 22.3636C126.465 21.4555 126.591 20.6667 126.843 19.9972C127.095 19.3277 127.456 18.8106 127.927 18.446C128.404 18.0814 128.988 17.8991 129.677 17.8991C130.373 17.8991 130.96 18.0881 131.437 18.4659C131.914 18.8438 132.276 19.3674 132.521 20.0369C132.766 20.7064 132.889 21.482 132.889 22.3636C132.889 23.2519 132.763 24.0374 132.511 24.7202C132.266 25.3963 131.904 25.9266 131.427 26.3111C130.95 26.6889 130.366 26.8778 129.677 26.8778C128.994 26.8778 128.414 26.6922 127.937 26.321C127.46 25.9432 127.095 25.4162 126.843 24.7401ZM144.274 30V21.1705C144.28 20.5142 144.406 19.9541 144.652 19.4901C144.903 19.0194 145.248 18.6615 145.686 18.4162C146.13 18.1709 146.64 18.0483 147.217 18.0483C148.079 18.0483 148.748 18.3101 149.225 18.8338C149.709 19.3575 149.948 20.09 149.941 21.0312V30H154.177V20.2756C154.184 19.0824 153.965 18.0582 153.521 17.2031C153.083 16.3414 152.467 15.6818 151.671 15.2244C150.883 14.7604 149.958 14.5284 148.897 14.5284C147.737 14.5284 146.773 14.7869 146.004 15.304C145.235 15.8144 144.678 16.5204 144.333 17.4219H144.154V9.63636H140.038V30H144.274ZM158.067 35.598C158.538 35.6842 159.042 35.7273 159.579 35.7273C160.626 35.7273 161.521 35.5582 162.263 35.2202C163.006 34.8887 163.619 34.4148 164.103 33.7983C164.593 33.1884 164.981 32.4725 165.266 31.6506L171.202 14.7273H166.718L163.526 25.9432H163.367L160.205 14.7273H155.751L161.229 30.4375L160.981 31.0838C160.795 31.5611 160.553 31.8991 160.255 32.098C159.963 32.2969 159.615 32.3897 159.211 32.3764C158.813 32.3632 158.366 32.2803 157.868 32.1278L156.914 35.2898C157.219 35.4157 157.603 35.5185 158.067 35.598Z" fill="white"/>
</svg>
