<?xml version="1.0" encoding="UTF-8"?>
<!--Generator: Apple Native CoreSVG 232.5-->
<!DOCTYPE svg
PUBLIC "-//W3C//DTD SVG 1.1//EN"
       "http://www.w3.org/Graphics/SVG/1.1/DTD/svg11.dtd">
<svg version="1.1" xmlns="http://www.w3.org/2000/svg" xmlns:xlink="http://www.w3.org/1999/xlink" width="20.2832" height="19.9316">
 <g>
  <rect height="19.9316" opacity="0" width="20.2832" x="0" y="0"/>
  <path d="M19.9219 9.96094C19.9219 15.4004 15.4102 19.9219 9.96094 19.9219C4.52148 19.9219 0 15.4004 0 9.96094C0 4.51172 4.51172 0 9.95117 0C15.4004 0 19.9219 4.51172 19.9219 9.96094ZM13.2031 9.95117C13.2031 10.7617 13.8574 11.416 14.668 11.416C15.459 11.416 16.123 10.7617 16.123 9.95117C16.123 9.14062 15.459 8.48633 14.668 8.48633C13.8574 8.48633 13.2031 9.14062 13.2031 9.95117ZM8.49609 9.95117C8.49609 10.7617 9.15039 11.416 9.96094 11.416C10.7715 11.416 11.4258 10.7617 11.4258 9.95117C11.4258 9.14062 10.7715 8.48633 9.96094 8.48633C9.15039 8.48633 8.49609 9.14062 8.49609 9.95117ZM3.79883 9.95117C3.79883 10.7617 4.46289 11.416 5.26367 11.416C6.06445 11.416 6.71875 10.7617 6.71875 9.95117C6.71875 9.14062 6.05469 8.48633 5.26367 8.48633C4.46289 8.48633 3.79883 9.14062 3.79883 9.95117Z" fill="#ffffff" fill-opacity="0.85"/>
 </g>
</svg>
